<?xml version="1.0" encoding="utf-8"?>
<!-- Generator: Adobe Illustrator 27.9.0, SVG Export Plug-In . SVG Version: 6.00 Build 0)  -->
<svg version="1.1" id="Layer_1" xmlns="http://www.w3.org/2000/svg" xmlns:xlink="http://www.w3.org/1999/xlink" x="0px" y="0px"
	 viewBox="0 0 1816 676" style="enable-background:new 0 0 1816 676;" xml:space="preserve">
<style type="text/css">
	.st0{fill:#B3B3B3;}
	.st1{fill:#2E60FF;}
	.st2{fill:#231F20;}
</style>
<g>
	<g>
		<path class="st0" d="M675.84,505.44v-56.07h7.76v56.07H675.84z"/>
		<path class="st0" d="M696.27,505.44v-42.99h5.8l0.66,6.46h0.57c1.14-1.74,2.44-3.16,3.88-4.25c1.44-1.09,3.05-1.89,4.82-2.41
			c1.77-0.52,3.66-0.78,5.68-0.78c2.72,0,5.11,0.46,7.15,1.39c2.04,0.93,3.65,2.42,4.82,4.49s1.76,4.87,1.76,8.42v29.67h-7.19
			v-28.69c0-1.8-0.23-3.27-0.7-4.41c-0.46-1.15-1.09-2.04-1.88-2.7c-0.79-0.65-1.74-1.12-2.86-1.39s-2.36-0.41-3.72-0.41
			c-2.02,0-3.92,0.49-5.72,1.47c-1.8,0.98-3.23,2.4-4.29,4.25c-1.06,1.85-1.59,4.06-1.59,6.62v25.25H696.27z"/>
		<path class="st0" d="M744,505.44V468.5h-6.37v-6.05H744v-6.86c0-1.69,0.25-3.28,0.74-4.78c0.49-1.5,1.42-2.72,2.78-3.68
			c1.36-0.95,3.27-1.43,5.72-1.43c0.76,0,1.51,0.04,2.25,0.12c0.74,0.08,1.44,0.19,2.12,0.33c0.68,0.14,1.3,0.29,1.84,0.45v5.15
			h-4.33c-1.36,0-2.36,0.34-2.98,1.02c-0.63,0.68-0.94,1.65-0.94,2.9v6.78h8.25v6.05h-8.25v36.94H744z"/>
		<path class="st0" d="M765.17,505.44v-42.99h5.8l0.66,7.11h0.57c0.44-1.36,1.04-2.66,1.8-3.88c0.76-1.23,1.8-2.24,3.1-3.02
			c1.31-0.79,2.92-1.19,4.82-1.19c0.82,0,1.57,0.07,2.25,0.2c0.68,0.14,1.18,0.29,1.51,0.45v6.62h-2.7c-1.86,0-3.45,0.32-4.78,0.94
			c-1.34,0.63-2.44,1.51-3.31,2.66c-0.87,1.14-1.51,2.5-1.92,4.08c-0.41,1.58-0.61,3.27-0.61,5.07v23.94H765.17z"/>
		<path class="st0" d="M802.28,506.42c-1.58,0-3.16-0.19-4.74-0.57c-1.58-0.38-3.06-1.01-4.41-1.88c-1.36-0.87-2.45-2.08-3.27-3.63
			c-0.82-1.56-1.22-3.5-1.22-5.85c0-2.94,0.71-5.37,2.12-7.27c1.42-1.91,3.39-3.39,5.93-4.45c2.54-1.06,5.54-1.8,9.03-2.2
			c3.49-0.41,7.27-0.62,11.36-0.62v-4.9c0-1.58-0.27-2.94-0.82-4.09c-0.54-1.14-1.51-2.03-2.9-2.66c-1.39-0.63-3.36-0.94-5.92-0.94
			c-2.45,0-4.4,0.31-5.85,0.94c-1.44,0.63-2.45,1.43-3.02,2.41c-0.57,0.98-0.86,2.07-0.86,3.27v1.23h-6.95
			c-0.05-0.27-0.08-0.54-0.08-0.82c0-0.27,0-0.6,0-0.98c0-2.62,0.72-4.81,2.16-6.58c1.44-1.77,3.47-3.11,6.09-4.01
			c2.62-0.9,5.61-1.35,8.99-1.35c3.6,0,6.61,0.52,9.03,1.56c2.42,1.04,4.25,2.5,5.47,4.41c1.23,1.91,1.84,4.2,1.84,6.87v23.29
			c0,1.04,0.24,1.76,0.74,2.17c0.49,0.41,1.09,0.61,1.8,0.61h3.19v4.74c-0.76,0.33-1.61,0.62-2.54,0.86
			c-0.93,0.24-1.99,0.37-3.19,0.37c-1.42,0-2.59-0.29-3.51-0.86c-0.93-0.57-1.64-1.36-2.12-2.37c-0.49-1.01-0.82-2.14-0.98-3.39
			h-0.57c-0.98,1.36-2.22,2.55-3.72,3.55c-1.5,1.01-3.17,1.79-5.02,2.33C806.47,506.15,804.46,506.42,802.28,506.42z M804.08,500.38
			c1.74,0,3.39-0.27,4.94-0.82c1.56-0.54,2.93-1.32,4.13-2.33c1.2-1.01,2.15-2.22,2.86-3.64c0.71-1.42,1.06-2.97,1.06-4.66v-3.59
			c-4.41,0-8.17,0.25-11.28,0.74c-3.11,0.49-5.49,1.36-7.15,2.62c-1.66,1.26-2.5,3.02-2.5,5.31c0,1.47,0.33,2.67,0.98,3.59
			c0.66,0.93,1.58,1.62,2.78,2.08C801.1,500.14,802.49,500.38,804.08,500.38z"/>
		<path class="st0" d="M851.06,506.42c-2.94,0-5.53-0.3-7.77-0.9c-2.24-0.6-4.09-1.47-5.56-2.62c-1.47-1.14-2.59-2.5-3.35-4.08
			c-0.76-1.58-1.14-3.38-1.14-5.39c0-0.27,0-0.53,0-0.78c0-0.24,0.03-0.45,0.08-0.61h7.11c-0.06,0.22-0.08,0.41-0.08,0.57
			c0,0.16,0,0.33,0,0.49c0.06,1.91,0.56,3.41,1.52,4.49c0.95,1.09,2.27,1.85,3.96,2.29c1.69,0.44,3.57,0.66,5.64,0.66
			c1.8,0,3.46-0.23,4.99-0.7c1.52-0.46,2.74-1.17,3.63-2.12c0.9-0.96,1.35-2.17,1.35-3.64c0-1.8-0.59-3.17-1.76-4.13
			c-1.17-0.95-2.71-1.7-4.62-2.25c-1.91-0.54-3.89-1.12-5.97-1.72c-1.74-0.49-3.49-1.04-5.23-1.64c-1.74-0.6-3.31-1.34-4.7-2.21
			c-1.39-0.87-2.51-2-3.35-3.39c-0.84-1.39-1.27-3.15-1.27-5.27c0-1.91,0.4-3.6,1.19-5.07c0.79-1.47,1.92-2.72,3.39-3.76
			c1.47-1.03,3.26-1.81,5.35-2.33c2.1-0.52,4.42-0.78,6.99-0.78c2.72,0,5.11,0.3,7.15,0.9c2.04,0.6,3.75,1.45,5.11,2.54
			c1.36,1.09,2.37,2.33,3.02,3.72c0.66,1.39,0.98,2.88,0.98,4.45c0,0.33,0,0.64,0,0.94c0,0.3-0.03,0.53-0.08,0.7h-7.03v-0.9
			c0-1.09-0.28-2.14-0.86-3.15c-0.58-1.01-1.56-1.82-2.94-2.45c-1.39-0.63-3.31-0.94-5.76-0.94c-1.58,0-2.94,0.12-4.09,0.37
			c-1.14,0.24-2.1,0.63-2.86,1.14c-0.76,0.52-1.34,1.12-1.72,1.8c-0.38,0.68-0.57,1.46-0.57,2.33c0,1.42,0.46,2.51,1.39,3.27
			c0.92,0.76,2.16,1.39,3.72,1.88c1.55,0.49,3.23,1.04,5.03,1.63c1.9,0.55,3.85,1.1,5.84,1.68c1.99,0.57,3.81,1.3,5.47,2.17
			c1.66,0.87,3,2.06,4.01,3.55c1.01,1.5,1.51,3.47,1.51,5.93c0,2.29-0.44,4.28-1.31,5.97c-0.87,1.69-2.11,3.08-3.72,4.17
			c-1.61,1.09-3.49,1.9-5.64,2.41C855.98,506.16,853.62,506.42,851.06,506.42z"/>
		<path class="st0" d="M887.76,506.42c-2.24,0-3.98-0.42-5.23-1.27c-1.26-0.84-2.15-1.96-2.7-3.35c-0.55-1.39-0.82-2.87-0.82-4.45
			V468.5h-5.56v-6.05h5.72l1.31-12.01h5.72v12.01h8.09v6.05h-8.09v27.79c0,1.36,0.24,2.38,0.74,3.06c0.49,0.68,1.42,1.02,2.78,1.02
			h4.57v4.74c-0.54,0.28-1.2,0.49-1.96,0.66c-0.76,0.16-1.54,0.31-2.33,0.45C889.22,506.35,888.47,506.42,887.76,506.42z"/>
		<path class="st0" d="M901.98,505.44v-42.99h5.8l0.66,7.11h0.57c0.44-1.36,1.04-2.66,1.8-3.88c0.76-1.23,1.8-2.24,3.1-3.02
			c1.31-0.79,2.92-1.19,4.82-1.19c0.82,0,1.57,0.07,2.25,0.2c0.68,0.14,1.18,0.29,1.51,0.45v6.62h-2.7c-1.86,0-3.45,0.32-4.78,0.94
			c-1.34,0.63-2.44,1.51-3.31,2.66c-0.87,1.14-1.51,2.5-1.92,4.08c-0.41,1.58-0.61,3.27-0.61,5.07v23.94H901.98z"/>
		<path class="st0" d="M942.44,506.42c-4.14,0-7.47-1.06-9.97-3.19c-2.51-2.12-3.76-5.83-3.76-11.11v-29.67h7.19v28.69
			c0,1.8,0.22,3.27,0.65,4.41s1.06,2.04,1.88,2.7c0.82,0.66,1.78,1.12,2.9,1.39c1.12,0.27,2.33,0.41,3.63,0.41
			c2.07,0,3.98-0.49,5.72-1.47c1.74-0.98,3.17-2.41,4.29-4.29c1.12-1.88,1.68-4.07,1.68-6.58v-25.26h7.19v42.99h-5.8l-0.65-6.46
			h-0.57c-1.14,1.75-2.44,3.16-3.88,4.25c-1.44,1.09-3.05,1.9-4.82,2.41S944.46,506.42,942.44,506.42z"/>
		<path class="st0" d="M991.39,506.42c-4.14,0-7.61-0.8-10.42-2.41c-2.81-1.6-4.93-4.09-6.37-7.44c-1.44-3.35-2.17-7.56-2.17-12.62
			c0-5.07,0.72-9.26,2.17-12.59c1.44-3.32,3.59-5.8,6.45-7.44c2.86-1.63,6.39-2.45,10.58-2.45c2.94,0,5.49,0.38,7.64,1.14
			c2.15,0.76,3.93,1.88,5.35,3.35c1.42,1.47,2.46,3.24,3.15,5.31c0.68,2.07,1.02,4.44,1.02,7.11h-7.27c0-2.51-0.34-4.56-1.02-6.17
			c-0.68-1.61-1.76-2.81-3.23-3.59c-1.47-0.79-3.4-1.19-5.8-1.19c-2.4,0-4.47,0.53-6.21,1.6c-1.74,1.06-3.08,2.74-4,5.03
			c-0.93,2.29-1.39,5.31-1.39,9.07v1.72c0,3.54,0.45,6.48,1.35,8.83c0.9,2.34,2.22,4.06,3.97,5.15c1.74,1.09,3.87,1.63,6.37,1.63
			c2.45,0,4.43-0.44,5.93-1.31c1.5-0.87,2.59-2.12,3.27-3.76c0.68-1.64,1.02-3.59,1.02-5.88h7.03c0,2.4-0.34,4.63-1.02,6.7
			c-0.68,2.07-1.73,3.87-3.15,5.39c-1.42,1.53-3.21,2.71-5.39,3.55C997.06,506,994.44,506.42,991.39,506.42z"/>
		<path class="st0" d="M1027.51,506.42c-2.24,0-3.98-0.42-5.23-1.27c-1.26-0.84-2.15-1.96-2.7-3.35c-0.55-1.39-0.82-2.87-0.82-4.45
			V468.5h-5.56v-6.05h5.72l1.31-12.01h5.72v12.01h8.09v6.05h-8.09v27.79c0,1.36,0.24,2.38,0.74,3.06c0.49,0.68,1.42,1.02,2.78,1.02
			h4.57v4.74c-0.54,0.28-1.2,0.49-1.96,0.66c-0.76,0.16-1.54,0.31-2.33,0.45C1028.97,506.35,1028.22,506.42,1027.51,506.42z"/>
		<path class="st0" d="M1055.06,506.42c-4.14,0-7.47-1.06-9.97-3.19c-2.51-2.12-3.76-5.83-3.76-11.11v-29.67h7.19v28.69
			c0,1.8,0.22,3.27,0.65,4.41c0.44,1.14,1.06,2.04,1.88,2.7c0.82,0.66,1.78,1.12,2.9,1.39c1.12,0.27,2.33,0.41,3.63,0.41
			c2.07,0,3.98-0.49,5.72-1.47c1.74-0.98,3.17-2.41,4.29-4.29c1.12-1.88,1.68-4.07,1.68-6.58v-25.26h7.19v42.99h-5.8l-0.65-6.46
			h-0.57c-1.14,1.75-2.44,3.16-3.88,4.25c-1.44,1.09-3.05,1.9-4.82,2.41C1058.96,506.16,1057.07,506.42,1055.06,506.42z"/>
		<path class="st0" d="M1087.67,505.44v-42.99h5.8l0.66,7.11h0.57c0.44-1.36,1.04-2.66,1.8-3.88c0.76-1.23,1.8-2.24,3.1-3.02
			c1.31-0.79,2.92-1.19,4.82-1.19c0.82,0,1.57,0.07,2.25,0.2c0.68,0.14,1.18,0.29,1.51,0.45v6.62h-2.7c-1.86,0-3.45,0.32-4.78,0.94
			c-1.34,0.63-2.44,1.51-3.31,2.66c-0.87,1.14-1.51,2.5-1.92,4.08c-0.41,1.58-0.61,3.27-0.61,5.07v23.94H1087.67z"/>
		<path class="st0" d="M1131.14,506.42c-4.25,0-7.83-0.8-10.74-2.41c-2.92-1.6-5.12-4.07-6.62-7.39c-1.5-3.32-2.25-7.55-2.25-12.67
			c0-5.18,0.75-9.41,2.25-12.71c1.5-3.3,3.72-5.75,6.66-7.36c2.94-1.61,6.62-2.41,11.03-2.41c4.03,0,7.41,0.78,10.13,2.33
			c2.73,1.55,4.78,3.87,6.17,6.95c1.39,3.08,2.09,6.93,2.09,11.56v3.43h-30.89c0.11,3.43,0.61,6.25,1.51,8.46
			c0.9,2.21,2.25,3.81,4.05,4.82c1.8,1.01,4.06,1.51,6.78,1.51c1.85,0,3.47-0.23,4.86-0.7c1.39-0.46,2.56-1.13,3.51-2
			c0.95-0.87,1.68-1.91,2.17-3.1c0.49-1.2,0.76-2.51,0.82-3.92h7.03c-0.06,2.29-0.49,4.4-1.31,6.33c-0.82,1.93-2.02,3.58-3.6,4.94
			c-1.58,1.36-3.51,2.42-5.8,3.19C1136.7,506.04,1134.09,506.42,1131.14,506.42z M1119.13,480.35h23.29c0-2.4-0.28-4.41-0.82-6.05
			c-0.54-1.64-1.32-2.97-2.33-4s-2.18-1.79-3.51-2.25c-1.34-0.46-2.85-0.7-4.53-0.7c-2.51,0-4.63,0.46-6.37,1.39
			c-1.75,0.93-3.08,2.34-4.01,4.25C1119.92,474.9,1119.35,477.36,1119.13,480.35z"/>
		<path class="st0" d="M1201.19,506.42c-5.72,0-10.57-1.05-14.55-3.15c-3.98-2.1-7.01-5.28-9.11-9.56c-2.1-4.27-3.15-9.71-3.15-16.3
			c0-9.75,2.37-17.03,7.11-21.82c4.74-4.79,11.33-7.19,19.78-7.19c4.79,0,9.04,0.78,12.75,2.33c3.7,1.55,6.61,3.89,8.71,7.03
			c2.1,3.14,3.14,7.07,3.14,11.81h-7.85c0-3.27-0.69-5.97-2.08-8.09c-1.39-2.12-3.34-3.72-5.84-4.78c-2.51-1.06-5.45-1.6-8.83-1.6
			c-3.93,0-7.31,0.76-10.14,2.29c-2.83,1.53-4.99,3.88-6.45,7.07c-1.47,3.19-2.21,7.29-2.21,12.3v1.72c0,4.96,0.74,9.01,2.21,12.14
			c1.47,3.14,3.61,5.44,6.41,6.91c2.81,1.47,6.2,2.21,10.18,2.21c3.48,0,6.49-0.52,9.03-1.55s4.49-2.63,5.89-4.78
			c1.39-2.15,2.08-4.86,2.08-8.13h7.6c0,4.85-1.08,8.83-3.23,11.93c-2.15,3.1-5.08,5.42-8.79,6.95
			C1210.15,505.66,1205.93,506.42,1201.19,506.42z"/>
		<path class="st0" d="M1253,506.42c-4.36,0-8.03-0.8-10.99-2.41c-2.97-1.6-5.23-4.07-6.78-7.39c-1.56-3.32-2.33-7.55-2.33-12.67
			c0-5.18,0.78-9.41,2.33-12.71c1.55-3.3,3.81-5.75,6.78-7.36c2.97-1.61,6.63-2.41,10.99-2.41c4.36,0,8.02,0.8,10.99,2.41
			c2.97,1.61,5.21,4.06,6.74,7.36c1.52,3.29,2.29,7.53,2.29,12.71c0,5.12-0.76,9.35-2.29,12.67c-1.53,3.32-3.77,5.79-6.74,7.39
			C1261.02,505.62,1257.36,506.42,1253,506.42z M1253,500.38c2.78,0,5.09-0.54,6.95-1.64c1.85-1.09,3.25-2.79,4.21-5.11
			c0.95-2.32,1.43-5.25,1.43-8.79v-1.8c0-3.59-0.48-6.54-1.43-8.83c-0.96-2.29-2.36-3.98-4.21-5.07c-1.85-1.09-4.17-1.63-6.95-1.63
			c-2.78,0-5.11,0.54-6.99,1.63c-1.88,1.09-3.28,2.78-4.21,5.07c-0.93,2.29-1.39,5.23-1.39,8.83v1.8c0,3.54,0.46,6.47,1.39,8.79
			c0.92,2.32,2.33,4.02,4.21,5.11C1247.9,499.83,1250.22,500.38,1253,500.38z"/>
		<path class="st0" d="M1296.97,506.42c-2.94,0-5.53-0.3-7.77-0.9c-2.24-0.6-4.09-1.47-5.56-2.62c-1.47-1.14-2.59-2.5-3.35-4.08
			c-0.76-1.58-1.14-3.38-1.14-5.39c0-0.27,0-0.53,0-0.78c0-0.24,0.03-0.45,0.08-0.61h7.11c-0.06,0.22-0.08,0.41-0.08,0.57
			c0,0.16,0,0.33,0,0.49c0.06,1.91,0.56,3.41,1.52,4.49c0.95,1.09,2.27,1.85,3.96,2.29c1.69,0.44,3.57,0.66,5.64,0.66
			c1.8,0,3.46-0.23,4.99-0.7c1.52-0.46,2.74-1.17,3.63-2.12c0.9-0.96,1.35-2.17,1.35-3.64c0-1.8-0.59-3.17-1.76-4.13
			c-1.17-0.95-2.71-1.7-4.62-2.25s-3.89-1.12-5.97-1.72c-1.74-0.49-3.49-1.04-5.23-1.64c-1.74-0.6-3.31-1.34-4.7-2.21
			c-1.39-0.87-2.51-2-3.35-3.39c-0.84-1.39-1.27-3.15-1.27-5.27c0-1.91,0.4-3.6,1.19-5.07c0.79-1.47,1.92-2.72,3.39-3.76
			c1.47-1.03,3.26-1.81,5.35-2.33c2.1-0.52,4.42-0.78,6.99-0.78c2.72,0,5.11,0.3,7.15,0.9c2.04,0.6,3.75,1.45,5.11,2.54
			c1.36,1.09,2.37,2.33,3.02,3.72c0.66,1.39,0.98,2.88,0.98,4.45c0,0.33,0,0.64,0,0.94c0,0.3-0.03,0.53-0.08,0.7h-7.03v-0.9
			c0-1.09-0.28-2.14-0.86-3.15c-0.58-1.01-1.56-1.82-2.94-2.45c-1.39-0.63-3.31-0.94-5.76-0.94c-1.58,0-2.94,0.12-4.09,0.37
			c-1.14,0.24-2.1,0.63-2.86,1.14c-0.76,0.52-1.34,1.12-1.72,1.8c-0.38,0.68-0.57,1.46-0.57,2.33c0,1.42,0.46,2.51,1.39,3.27
			c0.92,0.76,2.16,1.39,3.72,1.88c1.55,0.49,3.23,1.04,5.03,1.63c1.9,0.55,3.85,1.1,5.84,1.68c1.99,0.57,3.81,1.3,5.47,2.17
			c1.66,0.87,3,2.06,4.01,3.55c1.01,1.5,1.51,3.47,1.51,5.93c0,2.29-0.44,4.28-1.31,5.97s-2.11,3.08-3.72,4.17
			c-1.61,1.09-3.49,1.9-5.64,2.41C1301.88,506.16,1299.53,506.42,1296.97,506.42z"/>
		<path class="st0" d="M1333.66,506.42c-2.24,0-3.98-0.42-5.23-1.27c-1.26-0.84-2.15-1.96-2.7-3.35c-0.55-1.39-0.82-2.87-0.82-4.45
			V468.5h-5.56v-6.05h5.72l1.31-12.01h5.72v12.01h8.09v6.05h-8.09v27.79c0,1.36,0.24,2.38,0.74,3.06c0.49,0.68,1.42,1.02,2.78,1.02
			h4.57v4.74c-0.54,0.28-1.2,0.49-1.96,0.66c-0.76,0.16-1.54,0.31-2.33,0.45C1335.12,506.35,1334.37,506.42,1333.66,506.42z"/>
		<path class="st0" d="M1359.9,505.44l22.15-56.07h10.22l22.23,56.07h-8.42l-5.48-13.89h-27.3l-5.39,13.89H1359.9z M1375.84,484.93
			h22.14l-6.78-17.57c-0.16-0.49-0.41-1.17-0.74-2.04c-0.33-0.87-0.68-1.84-1.06-2.9c-0.38-1.06-0.76-2.15-1.14-3.27
			c-0.38-1.12-0.74-2.14-1.06-3.07h-0.49c-0.38,1.09-0.82,2.34-1.31,3.76c-0.49,1.42-0.98,2.8-1.47,4.13
			c-0.49,1.34-0.9,2.46-1.23,3.39L1375.84,484.93z"/>
		<path class="st0" d="M1420.7,505.44v-59.09h7.19v59.09H1420.7z"/>
		<path class="st0" d="M1439.09,505.44v-59.09h7.19v59.09H1439.09z"/>
		<path class="st0" d="M1475.14,506.42c-4.36,0-8.03-0.8-10.99-2.41c-2.97-1.6-5.23-4.07-6.78-7.39c-1.56-3.32-2.33-7.55-2.33-12.67
			c0-5.18,0.78-9.41,2.33-12.71c1.55-3.3,3.81-5.75,6.78-7.36c2.97-1.61,6.63-2.41,10.99-2.41s8.02,0.8,10.99,2.41
			c2.97,1.61,5.21,4.06,6.74,7.36c1.52,3.29,2.29,7.53,2.29,12.71c0,5.12-0.76,9.35-2.29,12.67c-1.53,3.32-3.77,5.79-6.74,7.39
			C1483.16,505.62,1479.49,506.42,1475.14,506.42z M1475.14,500.38c2.78,0,5.09-0.54,6.95-1.64c1.85-1.09,3.26-2.79,4.21-5.11
			c0.95-2.32,1.43-5.25,1.43-8.79v-1.8c0-3.59-0.48-6.54-1.43-8.83c-0.96-2.29-2.36-3.98-4.21-5.07c-1.85-1.09-4.17-1.63-6.95-1.63
			c-2.78,0-5.11,0.54-6.99,1.63c-1.88,1.09-3.28,2.78-4.21,5.07c-0.93,2.29-1.39,5.23-1.39,8.83v1.8c0,3.54,0.46,6.47,1.39,8.79
			c0.92,2.32,2.33,4.02,4.21,5.11C1470.03,499.83,1472.36,500.38,1475.14,500.38z"/>
		<path class="st0" d="M1520.41,506.42c-4.14,0-7.61-0.8-10.42-2.41c-2.81-1.6-4.93-4.09-6.37-7.44c-1.44-3.35-2.17-7.56-2.17-12.62
			c0-5.07,0.72-9.26,2.17-12.59c1.44-3.32,3.59-5.8,6.45-7.44c2.86-1.63,6.39-2.45,10.58-2.45c2.94,0,5.49,0.38,7.64,1.14
			c2.15,0.76,3.93,1.88,5.35,3.35c1.42,1.47,2.46,3.24,3.15,5.31c0.68,2.07,1.02,4.44,1.02,7.11h-7.27c0-2.51-0.34-4.56-1.02-6.17
			c-0.68-1.61-1.76-2.81-3.23-3.59c-1.47-0.79-3.4-1.19-5.8-1.19c-2.4,0-4.47,0.53-6.21,1.6c-1.74,1.06-3.08,2.74-4,5.03
			c-0.93,2.29-1.39,5.31-1.39,9.07v1.72c0,3.54,0.45,6.48,1.35,8.83c0.9,2.34,2.22,4.06,3.97,5.15c1.74,1.09,3.87,1.63,6.37,1.63
			c2.45,0,4.43-0.44,5.93-1.31c1.5-0.87,2.59-2.12,3.27-3.76c0.68-1.64,1.02-3.59,1.02-5.88h7.03c0,2.4-0.34,4.63-1.02,6.7
			c-0.68,2.07-1.73,3.87-3.15,5.39c-1.42,1.53-3.21,2.71-5.39,3.55C1526.07,506,1523.46,506.42,1520.41,506.42z"/>
		<path class="st0" d="M1557.27,506.42c-1.58,0-3.16-0.19-4.74-0.57c-1.58-0.38-3.06-1.01-4.41-1.88c-1.36-0.87-2.45-2.08-3.27-3.63
			c-0.82-1.56-1.22-3.5-1.22-5.85c0-2.94,0.71-5.37,2.12-7.27c1.42-1.91,3.39-3.39,5.93-4.45c2.54-1.06,5.54-1.8,9.03-2.2
			c3.49-0.41,7.27-0.62,11.36-0.62v-4.9c0-1.58-0.27-2.94-0.82-4.09c-0.54-1.14-1.51-2.03-2.9-2.66c-1.39-0.63-3.36-0.94-5.92-0.94
			c-2.45,0-4.4,0.31-5.85,0.94c-1.44,0.63-2.45,1.43-3.02,2.41c-0.57,0.98-0.86,2.07-0.86,3.27v1.23h-6.95
			c-0.05-0.27-0.08-0.54-0.08-0.82c0-0.27,0-0.6,0-0.98c0-2.62,0.72-4.81,2.16-6.58c1.44-1.77,3.47-3.11,6.09-4.01
			c2.62-0.9,5.61-1.35,8.99-1.35c3.6,0,6.61,0.52,9.03,1.56c2.42,1.04,4.25,2.5,5.47,4.41c1.23,1.91,1.84,4.2,1.84,6.87v23.29
			c0,1.04,0.24,1.76,0.74,2.17c0.49,0.41,1.09,0.61,1.8,0.61h3.19v4.74c-0.76,0.33-1.61,0.62-2.54,0.86
			c-0.93,0.24-1.99,0.37-3.19,0.37c-1.42,0-2.59-0.29-3.51-0.86c-0.93-0.57-1.64-1.36-2.12-2.37c-0.49-1.01-0.82-2.14-0.98-3.39
			h-0.57c-0.98,1.36-2.22,2.55-3.72,3.55c-1.5,1.01-3.17,1.79-5.02,2.33C1561.46,506.15,1559.45,506.42,1557.27,506.42z
			 M1559.07,500.38c1.74,0,3.39-0.27,4.94-0.82c1.56-0.54,2.93-1.32,4.13-2.33c1.2-1.01,2.15-2.22,2.86-3.64
			c0.71-1.42,1.06-2.97,1.06-4.66v-3.59c-4.41,0-8.17,0.25-11.28,0.74c-3.11,0.49-5.49,1.36-7.15,2.62c-1.66,1.26-2.5,3.02-2.5,5.31
			c0,1.47,0.33,2.67,0.98,3.59c0.66,0.93,1.58,1.62,2.78,2.08C1556.1,500.14,1557.48,500.38,1559.07,500.38z"/>
		<path class="st0" d="M1601.08,506.42c-2.24,0-3.98-0.42-5.23-1.27c-1.26-0.84-2.15-1.96-2.7-3.35c-0.55-1.39-0.82-2.87-0.82-4.45
			V468.5h-5.56v-6.05h5.72l1.31-12.01h5.72v12.01h8.09v6.05h-8.09v27.79c0,1.36,0.24,2.38,0.74,3.06c0.49,0.68,1.42,1.02,2.78,1.02
			h4.57v4.74c-0.54,0.28-1.2,0.49-1.96,0.66c-0.76,0.16-1.54,0.31-2.33,0.45C1602.53,506.35,1601.78,506.42,1601.08,506.42z"/>
		<path class="st0" d="M1615.29,454.36v-8.01h7.19v8.01H1615.29z M1615.29,505.44v-42.99h7.19v42.99H1615.29z"/>
		<path class="st0" d="M1651.34,506.42c-4.36,0-8.03-0.8-10.99-2.41c-2.97-1.6-5.23-4.07-6.78-7.39c-1.56-3.32-2.33-7.55-2.33-12.67
			c0-5.18,0.78-9.41,2.33-12.71c1.55-3.3,3.81-5.75,6.78-7.36c2.97-1.61,6.63-2.41,10.99-2.41c4.36,0,8.02,0.8,10.99,2.41
			c2.97,1.61,5.21,4.06,6.74,7.36c1.52,3.29,2.29,7.53,2.29,12.71c0,5.12-0.76,9.35-2.29,12.67c-1.53,3.32-3.77,5.79-6.74,7.39
			C1659.36,505.62,1655.7,506.42,1651.34,506.42z M1651.34,500.38c2.78,0,5.09-0.54,6.95-1.64c1.85-1.09,3.26-2.79,4.21-5.11
			c0.95-2.32,1.43-5.25,1.43-8.79v-1.8c0-3.59-0.48-6.54-1.43-8.83c-0.96-2.29-2.36-3.98-4.21-5.07c-1.85-1.09-4.17-1.63-6.95-1.63
			c-2.78,0-5.11,0.54-6.99,1.63c-1.88,1.09-3.28,2.78-4.21,5.07c-0.93,2.29-1.39,5.23-1.39,8.83v1.8c0,3.54,0.46,6.47,1.39,8.79
			c0.92,2.32,2.33,4.02,4.21,5.11C1646.23,499.83,1648.56,500.38,1651.34,500.38z"/>
		<path class="st0" d="M1680.27,505.44v-42.99h5.8l0.66,6.46h0.57c1.14-1.74,2.44-3.16,3.88-4.25c1.44-1.09,3.05-1.89,4.82-2.41
			c1.77-0.52,3.66-0.78,5.68-0.78c2.72,0,5.11,0.46,7.15,1.39c2.04,0.93,3.65,2.42,4.82,4.49s1.76,4.87,1.76,8.42v29.67h-7.19
			v-28.69c0-1.8-0.23-3.27-0.7-4.41c-0.46-1.15-1.09-2.04-1.88-2.7c-0.79-0.65-1.74-1.12-2.86-1.39s-2.36-0.41-3.72-0.41
			c-2.02,0-3.92,0.49-5.72,1.47c-1.8,0.98-3.23,2.4-4.29,4.25c-1.06,1.85-1.59,4.06-1.59,6.62v25.25H1680.27z"/>
	</g>
	<g>
		<g>
			<g>
				<rect x="278.89" y="21.27" class="st1" width="25.06" height="206.07"/>
			</g>
			<g>
				
					<rect x="242.95" y="29.36" transform="matrix(0.9848 -0.1738 0.1738 0.9848 -18.7413 46.2713)" class="st1" width="23.78" height="201.58"/>
			</g>
			<g>
				
					<rect x="208.99" y="44.38" transform="matrix(0.9397 -0.3421 0.3421 0.9397 -35.4658 83.9405)" class="st1" width="22.49" height="196.28"/>
			</g>
			<g>
				
					<rect x="178.38" y="65.5" transform="matrix(0.8657 -0.5005 0.5005 0.8657 -55.0653 116.1653)" class="st1" width="21.21" height="190.43"/>
			</g>
			<g>
				
					<rect x="151.89" y="91.95" transform="matrix(0.766 -0.6429 0.6429 0.766 -80.4009 147.0988)" class="st1" width="19.92" height="184.06"/>
			</g>
			<g>
				
					<rect x="130.29" y="122.46" transform="matrix(0.6425 -0.7663 0.7663 0.6425 -111.9343 182.4984)" class="st1" width="18.63" height="177.48"/>
			</g>
			<g>
				
					<rect x="114.19" y="155.88" transform="matrix(0.4998 -0.8661 0.8661 0.4998 -147.6543 227.1746)" class="st1" width="17.34" height="171.11"/>
			</g>
			<g>
				
					<rect x="103.58" y="191.13" transform="matrix(0.3417 -0.9398 0.9398 0.3417 -183.5992 284.9629)" class="st1" width="16.06" height="164.82"/>
			</g>
			<g>
				
					<rect x="98.73" y="227.08" transform="matrix(0.1739 -0.9848 0.9848 0.1739 -214.257 357.7986)" class="st1" width="14.78" height="159.04"/>
			</g>
			<g>
				<rect x="29.36" y="332.91" class="st1" width="153.87" height="13.49"/>
			</g>
			<g>
				
					<rect x="36.98" y="365.58" transform="matrix(0.9848 -0.1737 0.1737 0.9848 -62.8734 25.0423)" class="st1" width="149.27" height="12.21"/>
			</g>
			<g>
				
					<rect x="49.18" y="396.53" transform="matrix(0.9396 -0.3423 0.3423 0.9396 -130.2305 66.0453)" class="st1" width="145.65" height="10.92"/>
			</g>
			<g>
				
					<rect x="65.63" y="425.34" transform="matrix(0.866 -0.5001 0.5001 0.866 -196.741 126.1691)" class="st1" width="142.8" height="9.64"/>
			</g>
			<g>
				
					<rect x="85.87" y="451.14" transform="matrix(0.766 -0.6428 0.6428 0.766 -256.1275 206.996)" class="st1" width="140.78" height="8.35"/>
			</g>
			<g>
				
					<rect x="109.14" y="473.65" transform="matrix(0.6429 -0.766 0.766 0.6429 -301.3022 307.4921)" class="st1" width="139.93" height="6.42"/>
			</g>
			<g>
				
					<rect x="135.13" y="491.34" transform="matrix(0.5003 -0.8658 0.8658 0.5003 -325.7904 424.5587)" class="st1" width="139.65" height="6.42"/>
			</g>
			<g>
				
					<rect x="163" y="505.46" transform="matrix(0.3417 -0.9398 0.9398 0.3417 -323.7719 553.8193)" class="st1" width="140.92" height="5.14"/>
			</g>
			<g>
				<polygon class="st1" points="253.77,587.54 249.03,586.7 273.76,446.05 278.5,446.89 				"/>
			</g>
			<g>
				<rect x="293.76" y="447.84" class="st1" width="3.21" height="145.62"/>
			</g>
		</g>
		<g>
			<g>
				<rect x="282.84" y="447.83" class="st1" width="25.06" height="206.71"/>
			</g>
			<g>
				
					<rect x="320.18" y="444.22" transform="matrix(0.9848 -0.1738 0.1738 0.9848 -89.717 66.0065)" class="st1" width="23.78" height="202.21"/>
			</g>
			<g>
				
					<rect x="355.53" y="434.48" transform="matrix(0.9397 -0.3421 0.3421 0.9397 -160.1806 157.6253)" class="st1" width="22.49" height="196.88"/>
			</g>
			<g>
				
					<rect x="387.52" y="419.16" transform="matrix(0.8657 -0.5005 0.5005 0.8657 -204.1326 268.355)" class="st1" width="21.21" height="191.01"/>
			</g>
			<g>
				
					<rect x="415.39" y="399.01" transform="matrix(0.766 -0.6428 0.6428 0.766 -216.3143 388.4027)" class="st1" width="19.92" height="184.63"/>
			</g>
			<g>
				
					<rect x="438.34" y="375.01" transform="matrix(0.6425 -0.7663 0.7663 0.6425 -195.5365 508.9258)" class="st1" width="18.63" height="178.03"/>
			</g>
			<g>
				
					<rect x="455.78" y="347.89" transform="matrix(0.4998 -0.8661 0.8661 0.4998 -143.3357 619.2062)" class="st1" width="17.34" height="171.64"/>
			</g>
			<g>
				
					<rect x="467.7" y="318.83" transform="matrix(0.3417 -0.9398 0.9398 0.3417 -64.162 711.3849)" class="st1" width="16.06" height="165.33"/>
			</g>
			<g>
				
					<rect x="473.85" y="288.57" transform="matrix(0.1738 -0.9848 0.9848 0.1738 34.8597 778.2161)" class="st1" width="14.78" height="159.53"/>
			</g>
			<g>
				<rect x="403.9" y="328.43" class="st1" width="154.34" height="13.49"/>
			</g>
			<g>
				
					<rect x="400.86" y="296.94" transform="matrix(0.9848 -0.1737 0.1737 0.9848 -45.4133 87.255)" class="st1" width="149.73" height="12.21"/>
			</g>
			<g>
				
					<rect x="392.26" y="267.18" transform="matrix(0.9396 -0.3423 0.3423 0.9396 -65.2173 175.7432)" class="st1" width="146.1" height="10.92"/>
			</g>
			<g>
				
					<rect x="378.62" y="239.58" transform="matrix(0.866 -0.5001 0.5001 0.866 -61.8753 257.8971)" class="st1" width="143.24" height="9.64"/>
			</g>
			<g>
				
					<rect x="360.33" y="214.98" transform="matrix(0.766 -0.6428 0.6428 0.766 -40.0412 328.3107)" class="st1" width="141.22" height="8.35"/>
			</g>
			<g>
				
					<rect x="337.85" y="194.33" transform="matrix(0.6429 -0.766 0.766 0.6429 -5.5894 383.0884)" class="st1" width="140.36" height="6.42"/>
			</g>
			<g>
				
					<rect x="312.07" y="176.59" transform="matrix(0.5003 -0.8658 0.8658 0.5003 35.251 420.6747)" class="st1" width="140.07" height="6.42"/>
			</g>
			<g>
				
					<rect x="282.83" y="163.7" transform="matrix(0.3417 -0.9398 0.9398 0.3417 76.4387 441.6804)" class="st1" width="141.36" height="5.14"/>
			</g>
			<g>
				<polygon class="st1" points="313.08,228.44 308.34,227.62 333.14,86.54 337.88,87.37 				"/>
			</g>
			<g>
				<rect x="289.81" y="80.58" class="st1" width="3.21" height="146.07"/>
			</g>
		</g>
	</g>
	<g>
		<path class="st2" d="M671.82,401.02V227.18h14.19v173.84H671.82z"/>
		<path class="st2" d="M733.4,401.02V267.73h9.63l1.27,23.31h2.03c4.56-7.09,9.71-12.58,15.46-16.47c5.74-3.89,11.74-6.5,17.99-7.86
			c6.25-1.35,12.42-2.03,18.5-2.03c9.96,0,18.45,1.44,25.47,4.31c7.01,2.88,12.37,7.57,16.09,14.07c3.71,6.51,5.57,15.33,5.57,26.48
			v91.48h-12.42v-89.96c0-7.77-0.98-13.98-2.92-18.62c-1.94-4.65-4.61-8.15-7.98-10.52c-3.38-2.37-7.35-3.97-11.91-4.82
			c-4.56-0.84-9.46-1.26-14.7-1.26c-8.11,0-15.97,1.86-23.57,5.57c-7.6,3.72-13.81,9.08-18.63,16.09
			c-4.81,7.01-7.22,15.5-7.22,25.47v78.05H733.4z"/>
		<path class="st2" d="M890.26,401.02V278.88H867.2v-11.15h23.06v-25.09c0-4.05,0.59-8.15,1.77-12.29c1.18-4.14,3.67-7.6,7.48-10.39
			c3.8-2.79,9.33-4.18,16.6-4.18c2.53,0,4.85,0.09,6.97,0.25c2.11,0.17,4.09,0.34,5.96,0.51c1.86,0.17,3.55,0.51,5.07,1.02v9.38
			h-15.96c-5.24,0-9.13,1.26-11.66,3.8c-2.53,2.54-3.8,6.17-3.8,10.9v26.1h31.42v11.15h-31.42v122.14H890.26z"/>
		<path class="st2" d="M956.91,401.02V267.73h9.63l1.27,24.58h1.52c0.84-3.55,2.49-7.48,4.94-11.78c2.45-4.31,6.04-8.02,10.77-11.15
			c4.73-3.13,10.81-4.69,18.24-4.69c2.37,0,4.69,0.13,6.97,0.38c2.28,0.26,4.09,0.64,5.45,1.14v10.9h-7.86
			c-7.43,0-13.64,1.48-18.63,4.43c-4.98,2.96-8.91,6.89-11.78,11.78c-2.88,4.9-4.9,10.14-6.08,15.71
			c-1.18,5.58-1.77,10.9-1.77,15.97v76.02H956.91z"/>
		<path class="st2" d="M1077.53,404.06c-6.59,0-12.76-0.72-18.5-2.15c-5.75-1.44-10.77-3.59-15.08-6.46
			c-4.31-2.87-7.69-6.59-10.14-11.15c-2.45-4.56-3.67-10.05-3.67-16.47c0-10.14,2.74-18.16,8.23-24.07
			c5.49-5.91,13.14-10.3,22.94-13.18c9.79-2.87,21.16-4.69,34.08-5.45c12.92-0.76,26.82-1.14,41.69-1.14v-15.46
			c0-7.94-1.31-14.28-3.93-19.01c-2.62-4.73-7.22-8.19-13.81-10.39c-6.59-2.19-15.8-3.29-27.62-3.29c-10.48,0-18.88,1.18-25.21,3.55
			c-6.34,2.37-10.86,5.49-13.56,9.38c-2.7,3.89-4.05,8.28-4.05,13.18v5.32h-11.91c-0.17-0.84-0.3-1.69-0.38-2.54
			c-0.09-0.84-0.13-1.86-0.13-3.04c0-8.45,2.28-15.42,6.84-20.91c4.56-5.49,11.23-9.54,20.02-12.16c8.78-2.62,19.43-3.93,31.93-3.93
			c11.82,0,21.75,1.44,29.77,4.31c8.02,2.88,14.1,7.35,18.25,13.43c4.14,6.08,6.21,14.03,6.21,23.82v77.29
			c0,3.55,0.54,5.96,1.64,7.22c1.1,1.27,3.08,1.9,5.96,1.9h12.16v7.85c-3.21,1.18-6.21,1.98-9,2.41c-2.79,0.42-5.19,0.64-7.22,0.64
			c-5.07,0-8.75-1.1-11.02-3.29c-2.28-2.2-3.72-5.15-4.31-8.87c-0.6-3.71-0.89-7.86-0.89-12.42h-1.78
			c-4.05,5.41-9.21,9.97-15.46,13.68c-6.25,3.71-13.01,6.55-20.27,8.49C1092.06,403.09,1084.8,404.06,1077.53,404.06z
			 M1078.04,392.66c7.1,0,14.1-1.02,21.03-3.04c6.93-2.03,13.26-4.9,19.01-8.61c5.74-3.71,10.35-8.11,13.81-13.18
			c3.46-5.07,5.19-10.64,5.19-16.73v-15.96c-20.95,0-38.35,0.85-52.2,2.54c-13.85,1.69-24.16,4.86-30.91,9.5
			c-6.76,4.65-10.14,11.53-10.14,20.65c0,6.08,1.6,10.98,4.81,14.7c3.21,3.72,7.47,6.33,12.8,7.85
			C1066.76,391.9,1072.29,392.66,1078.04,392.66z"/>
	</g>
	<g>
		<path class="st2" d="M1367.41,274.82c1.18-11.99,0.8-21.45-1.14-28.38c-1.94-6.93-5.32-11.82-10.14-14.7
			c-4.81-2.87-10.94-4.31-18.37-4.31h-3.3c-5.07,0-9.04,0.47-11.91,1.4c-2.88,0.93-5.15,2.88-6.84,5.83
			c-1.69,2.96-3.29,7.57-4.81,13.81l-33.45,125.69c-1.52,6.08-2.03,10.64-1.52,13.69c0.51,3.04,2.45,5.07,5.83,6.08
			c3.38,1.01,8.62,1.69,15.71,2.03l-1.27,5.07c-5.41-0.34-12.46-0.55-21.16-0.63c-8.71-0.08-17.53-0.13-26.48-0.13
			c-9.12,0-17.57,0.04-25.34,0.13s-14.02,0.3-18.75,0.63l1.02-5.07c5.74-0.34,10.22-1.02,13.43-2.03c3.21-1.02,5.74-3.04,7.61-6.08
			c1.86-3.04,3.55-7.61,5.07-13.69l33.45-125.69c1.69-6.25,2.37-10.85,2.03-13.81c-0.34-2.95-1.82-4.98-4.43-6.08
			c-2.62-1.1-6.8-1.73-12.54-1.9l1.27-5.07c7.1,0.17,14.66,0.3,22.68,0.38c8.02,0.09,15.97,0.17,23.82,0.25
			c7.86,0.09,15.16,0.13,21.92,0.13c6.75,0,12.33,0,16.73,0c7.6,0,16.22-0.04,25.85-0.13c9.63-0.08,18.33-0.29,26.1-0.63
			c-2.2,6.08-4.01,11.36-5.45,15.84c-1.44,4.47-2.83,9.33-4.18,14.57c-1.18,4.4-2.28,8.53-3.29,12.42
			c-1.01,3.89-1.86,7.35-2.54,10.39H1367.41z M1276.95,313.85l1.01-5.07h53.73l-1.27,5.07H1276.95z M1304.06,308.78
			c4.22,0,8.11-0.76,11.66-2.28s6.8-3.63,9.76-6.34c2.95-2.7,5.61-5.83,7.98-9.37c2.36-3.55,4.39-7.35,6.08-11.4h5.83
			c-2.54,7.27-4.35,13.09-5.45,17.49c-1.1,4.39-2.32,9.21-3.67,14.44c-1.18,5.07-2.37,10.52-3.55,16.34
			c-1.18,5.83-2.62,13.05-4.31,21.67h-5.57c0-5.57-0.34-10.51-1.02-14.82c-0.68-4.31-1.86-8.03-3.55-11.15
			c-1.69-3.12-3.97-5.49-6.84-7.09c-2.88-1.6-6.34-2.41-10.39-2.41L1304.06,308.78z"/>
		<path class="st2" d="M1400.86,389.11c2.03,0,4.31-1.05,6.84-3.17c2.54-2.11,5.15-5.36,7.86-9.76c2.7-4.39,5.49-10.05,8.36-16.98
			c2.87-6.92,5.66-15.29,8.36-25.09l-6.33,27.37c-3.38,10.81-7.35,19.39-11.91,25.72c-4.56,6.33-9.59,10.81-15.08,13.43
			c-5.49,2.62-11.28,3.93-17.36,3.93c-10.14,0-17.66-2.79-22.56-8.36c-4.9-5.57-7.35-13.26-7.35-23.06c0-9.46,1.6-19.22,4.81-29.27
			c3.21-10.05,7.56-19.68,13.05-28.88c5.49-9.21,11.66-17.49,18.5-24.84c6.84-7.35,14.02-13.18,21.54-17.49
			c7.52-4.31,14.91-6.46,22.17-6.46c5.58,0,9.84,1.95,12.8,5.83c2.96,3.89,3.93,10.3,2.92,19.26l-2.79,1.52
			c0.84-5.23,0.72-9.17-0.38-11.78c-1.1-2.62-3-3.93-5.7-3.93c-3.21,0-6.76,1.9-10.64,5.7c-3.89,3.8-7.82,8.96-11.78,15.46
			c-3.97,6.51-7.6,13.94-10.9,22.3s-5.95,17.19-7.98,26.48c-2.03,9.3-3.04,18.42-3.04,27.37c0,5.24,0.51,9,1.52,11.28
			C1396.81,387.97,1398.5,389.11,1400.86,389.11z M1451.04,270.01c8.27-0.17,15.67-0.55,22.17-1.14c6.5-0.59,12.88-1.48,19.13-2.66
			l-33.71,113.27c-0.68,2.37-1.06,4.43-1.14,6.21c-0.09,1.78,0.25,3.13,1.01,4.05c0.76,0.93,1.9,1.39,3.42,1.39
			c1.86,0,4.05-1.1,6.59-3.29c2.53-2.2,5.23-7.1,8.11-14.7l4.81-13.18h4.81l-6.34,18.5c-2.37,6.93-5.49,12.29-9.37,16.09
			c-3.89,3.8-8.03,6.42-12.42,7.86c-4.39,1.43-8.79,2.15-13.18,2.15c-9.46,0-16.22-2.79-20.27-8.36c-2.54-3.71-3.8-8.36-3.8-13.94
			c0-5.57,1.1-12.16,3.29-19.77L1451.04,270.01z"/>
		<path class="st2" d="M1530.87,291.29c2.7-7.77,1.86-11.66-2.54-11.66c-2.7,0-5.24,1.36-7.6,4.05c-2.37,2.7-4.9,7.35-7.6,13.94
			l-5.32,14.19h-4.81l7.09-19.51c2.36-6.59,5.36-11.78,9-15.59c3.63-3.8,7.81-6.5,12.54-8.11c4.73-1.6,9.71-2.41,14.95-2.41
			c6.25,0,11.15,1.1,14.7,3.29c3.55,2.2,6.08,5.03,7.61,8.49c1.52,3.47,2.19,7.27,2.03,11.4c-0.17,4.14-0.93,8.24-2.28,12.29
			l-26.61,77.79c-1.36,4.39-1.65,7.44-0.89,9.13c0.76,1.69,2.16,2.53,4.18,2.53c1.86,0,4.05-1.1,6.59-3.29
			c2.53-2.2,5.23-7.1,8.11-14.7l4.81-13.18h4.81l-6.34,18.5c-2.53,6.93-5.66,12.29-9.37,16.09c-3.72,3.8-7.86,6.42-12.42,7.86
			c-4.56,1.43-9.04,2.15-13.43,2.15c-7.44,0-13.27-1.61-17.49-4.81c-4.23-3.21-6.68-7.94-7.35-14.19
			c-0.68-6.25,0.51-13.94,3.55-23.06L1530.87,291.29z"/>
		<path class="st2" d="M1541,228.7c0.16-8.11,3-14.28,8.49-18.5c5.49-4.22,12.12-6.33,19.89-6.33c6.93,0,12.12,1.48,15.59,4.43
			c3.46,2.96,5.11,7.22,4.94,12.8c-0.17,7.09-3,12.92-8.49,17.49c-5.49,4.56-12.21,6.84-20.15,6.84c-6.59,0-11.66-1.48-15.2-4.43
			S1540.83,233.94,1541,228.7z"/>
		<path class="st2" d="M1623.11,401.02h-40.3l30.92-109.73c1.18-4.22,1.56-7.22,1.14-8.99c-0.42-1.78-1.65-2.66-3.67-2.66
			c-2.88,0-5.49,1.31-7.85,3.93c-2.37,2.62-4.81,7.31-7.35,14.07l-5.32,14.19h-4.81l7.09-19.51c2.36-6.59,5.32-11.78,8.87-15.59
			c3.55-3.8,7.69-6.5,12.42-8.11c4.73-1.6,9.71-2.41,14.95-2.41c5.57,0,9.92,1.06,13.05,3.17s5.32,4.94,6.59,8.49
			c1.27,3.55,1.86,7.39,1.78,11.53c-0.09,4.14-0.64,8.24-1.65,12.29L1623.11,401.02z M1687.98,271.53c-3.38,0-6.93,0.76-10.64,2.28
			c-3.72,1.52-7.61,4.65-11.66,9.37c-4.05,4.73-8.32,11.7-12.8,20.91c-4.48,9.21-9.17,21.46-14.06,36.74
			c-4.9,15.29-9.97,34.34-15.21,57.14l5.58-34.97c5.23-19.09,10.01-34.84,14.32-47.26c4.31-12.42,8.62-22.3,12.92-29.65
			c4.31-7.35,9-12.5,14.07-15.46c5.07-2.95,10.9-4.43,17.48-4.43c7.26,0,12.84,2.16,16.73,6.46c3.88,4.31,5.83,9.67,5.83,16.09
			c0,5.07-1.14,9.84-3.42,14.32c-2.28,4.48-5.41,8.03-9.38,10.64c-3.97,2.62-8.49,3.93-13.56,3.93c-5.58,0-9.84-1.43-12.8-4.31
			c-2.96-2.87-4.43-7.1-4.43-12.67c0-4.56,1.1-8.83,3.3-12.8c2.2-3.97,5.15-7.35,8.87-10.14c3.71-2.79,7.77-4.6,12.16-5.45
			c-0.51-0.16-1.01-0.34-1.52-0.5C1689.25,271.62,1688.66,271.53,1687.98,271.53z"/>
	</g>
	<g>
		<g>
			<path class="st2" d="M1733.77,187.35v-23.78h-11.05v-5.19h28.04v5.19h-11.05v23.78H1733.77z"/>
			<path class="st2" d="M1755.52,187.35v-28.97h9.28l5.61,15.52c0.17,0.5,0.38,1.13,0.63,1.88c0.26,0.75,0.51,1.5,0.76,2.28
				c0.25,0.77,0.46,1.45,0.63,2.04h0.34c0.14-0.53,0.32-1.17,0.55-1.9c0.22-0.73,0.46-1.48,0.72-2.24c0.25-0.76,0.48-1.45,0.68-2.07
				l5.61-15.52h9.15v28.97h-5.95v-16.19c0-0.87,0-1.78,0.02-2.72c0.02-0.94,0.04-1.79,0.08-2.55c0.04-0.76,0.06-1.28,0.06-1.56
				h-0.34c-0.08,0.34-0.24,0.86-0.46,1.58c-0.23,0.72-0.46,1.47-0.7,2.26c-0.24,0.79-0.46,1.46-0.66,2.02l-6.33,17.16h-5.65
				l-6.37-17.12c-0.2-0.59-0.41-1.24-0.63-1.96c-0.23-0.72-0.44-1.43-0.64-2.13c-0.2-0.7-0.38-1.3-0.55-1.81h-0.34
				c0.03,0.54,0.06,1.2,0.08,2c0.03,0.8,0.05,1.62,0.06,2.47c0.01,0.84,0.02,1.63,0.02,2.36v16.19H1755.52z"/>
		</g>
	</g>
</g>
</svg>
